<mxfile host="app.diagrams.net" modified="2022-06-09T16:50:02.988Z" agent="5.0 (Macintosh; Intel Mac OS X 10_15_7) AppleWebKit/537.36 (KHTML, like Gecko) Chrome/102.0.5005.61 Safari/537.36" etag="LbhOVVbos-f8va5aQOKR" version="18.2.0" type="github">
  <diagram id="bS04rFWsIkb7Tixjy2q0" name="Page-1">
    <mxGraphModel dx="1186" dy="738" grid="1" gridSize="10" guides="1" tooltips="1" connect="1" arrows="1" fold="1" page="1" pageScale="1" pageWidth="827" pageHeight="1169" math="0" shadow="0">
      <root>
        <mxCell id="0" />
        <mxCell id="1" parent="0" />
        <mxCell id="aSwNNX9PzZ2cH6t0o6jQ-3" style="edgeStyle=orthogonalEdgeStyle;curved=1;rounded=0;orthogonalLoop=1;jettySize=auto;html=1;exitX=1;exitY=0.5;exitDx=0;exitDy=0;labelBackgroundColor=none;fontSize=12;fontColor=#FFFFFF;startArrow=none;startFill=0;" edge="1" parent="1" source="aSwNNX9PzZ2cH6t0o6jQ-1" target="aSwNNX9PzZ2cH6t0o6jQ-2">
          <mxGeometry relative="1" as="geometry" />
        </mxCell>
        <mxCell id="aSwNNX9PzZ2cH6t0o6jQ-1" value="GC Roots (a)" style="rounded=0;whiteSpace=wrap;html=1;shadow=0;labelBackgroundColor=none;fontSize=12;fillColor=#cce5ff;fontStyle=1;strokeColor=#36393d;" vertex="1" parent="1">
          <mxGeometry x="110" y="150" width="120" height="60" as="geometry" />
        </mxCell>
        <mxCell id="aSwNNX9PzZ2cH6t0o6jQ-5" value="" style="edgeStyle=orthogonalEdgeStyle;curved=1;rounded=0;orthogonalLoop=1;jettySize=auto;html=1;labelBackgroundColor=none;fontSize=12;fontColor=#FFFFFF;startArrow=none;startFill=0;" edge="1" parent="1" source="aSwNNX9PzZ2cH6t0o6jQ-2" target="aSwNNX9PzZ2cH6t0o6jQ-4">
          <mxGeometry relative="1" as="geometry" />
        </mxCell>
        <mxCell id="aSwNNX9PzZ2cH6t0o6jQ-10" style="edgeStyle=orthogonalEdgeStyle;rounded=0;orthogonalLoop=1;jettySize=auto;html=1;exitX=1;exitY=0.5;exitDx=0;exitDy=0;entryX=1;entryY=0.5;entryDx=0;entryDy=0;labelBackgroundColor=none;fontSize=12;fontColor=#FFFFFF;startArrow=none;startFill=0;strokeColor=#FF0000;" edge="1" parent="1" source="aSwNNX9PzZ2cH6t0o6jQ-2" target="aSwNNX9PzZ2cH6t0o6jQ-8">
          <mxGeometry relative="1" as="geometry">
            <Array as="points">
              <mxPoint x="540" y="180" />
              <mxPoint x="540" y="460" />
            </Array>
          </mxGeometry>
        </mxCell>
        <mxCell id="aSwNNX9PzZ2cH6t0o6jQ-11" value="&lt;font color=&quot;#000000&quot;&gt;开始没有&lt;br&gt;后面新增&lt;br&gt;&lt;/font&gt;" style="edgeLabel;html=1;align=center;verticalAlign=middle;resizable=0;points=[];fontSize=12;fontColor=#FFFFFF;" vertex="1" connectable="0" parent="aSwNNX9PzZ2cH6t0o6jQ-10">
          <mxGeometry x="-0.1839" y="-2" relative="1" as="geometry">
            <mxPoint as="offset" />
          </mxGeometry>
        </mxCell>
        <mxCell id="aSwNNX9PzZ2cH6t0o6jQ-2" value="&lt;b&gt;A&lt;/b&gt;" style="ellipse;whiteSpace=wrap;html=1;aspect=fixed;shadow=0;labelBackgroundColor=none;fontSize=12;fontColor=#FFFFFF;fillColor=#000000;gradientColor=none;" vertex="1" parent="1">
          <mxGeometry x="340" y="150" width="60" height="60" as="geometry" />
        </mxCell>
        <mxCell id="aSwNNX9PzZ2cH6t0o6jQ-7" value="" style="rounded=0;orthogonalLoop=1;jettySize=auto;html=1;labelBackgroundColor=none;fontSize=12;fontColor=#FFFFFF;startArrow=none;startFill=0;exitX=0.5;exitY=1;exitDx=0;exitDy=0;" edge="1" parent="1" source="aSwNNX9PzZ2cH6t0o6jQ-4" target="aSwNNX9PzZ2cH6t0o6jQ-6">
          <mxGeometry relative="1" as="geometry" />
        </mxCell>
        <mxCell id="aSwNNX9PzZ2cH6t0o6jQ-9" value="" style="edgeStyle=none;rounded=0;orthogonalLoop=1;jettySize=auto;html=1;labelBackgroundColor=none;fontSize=12;fontColor=#FFFFFF;startArrow=none;startFill=0;exitX=0.5;exitY=1;exitDx=0;exitDy=0;dashed=1;" edge="1" parent="1" source="aSwNNX9PzZ2cH6t0o6jQ-4" target="aSwNNX9PzZ2cH6t0o6jQ-8">
          <mxGeometry relative="1" as="geometry" />
        </mxCell>
        <mxCell id="aSwNNX9PzZ2cH6t0o6jQ-12" value="开始有&lt;br&gt;后面去掉" style="edgeLabel;html=1;align=center;verticalAlign=middle;resizable=0;points=[];fontSize=12;fontColor=#000000;" vertex="1" connectable="0" parent="aSwNNX9PzZ2cH6t0o6jQ-9">
          <mxGeometry x="-0.0833" y="1" relative="1" as="geometry">
            <mxPoint as="offset" />
          </mxGeometry>
        </mxCell>
        <mxCell id="aSwNNX9PzZ2cH6t0o6jQ-4" value="&lt;b&gt;B&lt;/b&gt;" style="ellipse;whiteSpace=wrap;html=1;aspect=fixed;shadow=0;labelBackgroundColor=none;fontSize=12;fillColor=#eeeeee;strokeColor=#36393d;" vertex="1" parent="1">
          <mxGeometry x="340" y="290" width="60" height="60" as="geometry" />
        </mxCell>
        <mxCell id="aSwNNX9PzZ2cH6t0o6jQ-6" value="&lt;span&gt;C&lt;/span&gt;" style="ellipse;whiteSpace=wrap;html=1;aspect=fixed;shadow=0;labelBackgroundColor=none;fontSize=12;fillColor=#000000;strokeColor=#36393d;fontColor=#FFFFFF;fontStyle=1" vertex="1" parent="1">
          <mxGeometry x="240" y="430" width="60" height="60" as="geometry" />
        </mxCell>
        <mxCell id="aSwNNX9PzZ2cH6t0o6jQ-8" value="&lt;b&gt;D&lt;/b&gt;" style="ellipse;whiteSpace=wrap;html=1;aspect=fixed;shadow=0;labelBackgroundColor=none;fontSize=12;" vertex="1" parent="1">
          <mxGeometry x="440" y="430" width="60" height="60" as="geometry" />
        </mxCell>
      </root>
    </mxGraphModel>
  </diagram>
</mxfile>
